# xmcd
#
# Track frame offsets:
#	150
#	58556
#	109448
#	148913
#
# Disc length: 2726 seconds
# Revision: 0
# Processed by: cddbd v1.5.2PL0 Copyright (c) Steve Scherf et al.
# Submitted via: dBpowerAMP V12.0
#
DISCID=3b0aa404
DTITLE=Larry Crane - The Goals and Resistance Course Bonus Session 2000-11-16 CD 01
DYEAR=2000
DGENRE=Speech
TTITLE0=The G and R Course Bonus Session 2000-11-16 pt 1
TTITLE1=The G and R Course Bonus Session 2000-11-16 pt 2
TTITLE2=The G and R Course Bonus Session 2000-11-16 pt 3
TTITLE3=The G and R Course Bonus Session 2000-11-16 pt 4
EXTD=
EXTT0=
EXTT1=
EXTT2=
EXTT3=
PLAYORDER=
